HIERARCHY
ROOT hip
{
  OFFSET 0 0 0
  CHANNELS 6 Xposition Yposition Zposition Zrotation Yrotation Xrotation
  JOINT abdomen
  {
    OFFSET 0 20.6881 -0.73152
    CHANNELS 3 Zrotation Xrotation Yrotation
    JOINT chest
    {
      OFFSET 0 11.7043 -0.48768
      CHANNELS 3 Zrotation Xrotation Yrotation
      JOINT neck
      {
        OFFSET 0 22.1894 -2.19456
        CHANNELS 3 Zrotation Xrotation Yrotation
        JOINT head
        {
          OFFSET -0.24384 7.07133 1.2192
          CHANNELS 3 Zrotation Xrotation Yrotation
          JOINT leftEye
          {
            OFFSET 4.14528 8.04674 8.04672
            CHANNELS 3 Zrotation Xrotation Yrotation
            End Site
            {
              OFFSET 1 0 0
            }
          }
          JOINT rightEye
          {
            OFFSET -3.6576 8.04674 8.04672
            CHANNELS 3 Zrotation Xrotation Yrotation
            End Site
            {
              OFFSET 1 0 0
            }
          }
        }
      }
      JOINT rCollar
      {
        OFFSET -2.68224 19.2634 -4.8768
        CHANNELS 3 Zrotation Xrotation Yrotation
        JOINT rShldr
        {
          OFFSET -8.77824 -1.95073 1.46304
          CHANNELS 3 Zrotation Xrotation Yrotation
          JOINT rForeArm
          {
            OFFSET -28.1742 -1.7115 0.48768
            CHANNELS 3 Zrotation Xrotation Yrotation
            JOINT rHand
            {
              OFFSET -22.5879 0.773209 7.07136
              CHANNELS 3 Zrotation Xrotation Yrotation
              JOINT rThumb1
              {
                OFFSET -1.2192 -0.487915 3.41376
                CHANNELS 3 Zrotation Xrotation Yrotation
                JOINT rThumb2
                {
                  OFFSET -3.37035 -0.52449 3.41376
                  CHANNELS 3 Zrotation Xrotation Yrotation
                  End Site
                  {
                    OFFSET -1.78271 -1.18214 1.43049
                  }
                }
              }
              JOINT rIndex1
              {
                OFFSET -7.75947 0.938293 5.60832
                CHANNELS 3 Zrotation Xrotation Yrotation
                JOINT rIndex2
                {
                  OFFSET -2.54057 -0.884171 1.56538
                  CHANNELS 3 Zrotation Xrotation Yrotation
                  End Site
                  {
                    OFFSET -1.62519 -0.234802 1.16502
                  }
                }
              }
              JOINT rMid1
              {
                OFFSET -8.24714 1.18213 3.41376
                CHANNELS 3 Zrotation Xrotation Yrotation
                JOINT rMid2
                {
                  OFFSET -3.10165 -0.590103 1.0647
                  CHANNELS 3 Zrotation Xrotation Yrotation
                  End Site
                  {
                    OFFSET -2.48547 -0.328903 0.83742
                  }
                }
              }
              JOINT rRing1
              {
                OFFSET -8.82822 0.546677 1.51678
                CHANNELS 3 Zrotation Xrotation Yrotation
                JOINT rRing2
                {
                  OFFSET -2.60934 -0.819778 -0.0198488
                  CHANNELS 3 Zrotation Xrotation Yrotation
                  End Site
                  {
                    OFFSET -2.33842 -0.294052 0.168128
                  }
                }
              }
              JOINT rPinky1
              {
                OFFSET -8.27202 -0.0477905 -0.4584
                CHANNELS 3 Zrotation Xrotation Yrotation
                JOINT rPinky2
                {
                  OFFSET -1.82734 -0.647385 -0.700984
                  CHANNELS 3 Zrotation Xrotation Yrotation
                  End Site
                  {
                    OFFSET -1.69225 -0.51767 -0.607171
                  }
                }
              }
            }
          }
        }
      }
      JOINT lCollar
      {
        OFFSET 2.68224 19.2634 -4.8768
        CHANNELS 3 Zrotation Xrotation Yrotation
        JOINT lShldr
        {
          OFFSET 8.77824 -1.95073 1.46304
          CHANNELS 3 Zrotation Xrotation Yrotation
          JOINT lForeArm
          {
            OFFSET 28.1742 -1.7115 0.48768
            CHANNELS 3 Zrotation Xrotation Yrotation
            JOINT lHand
            {
              OFFSET 22.5879 0.773209 7.07136
              CHANNELS 3 Zrotation Xrotation Yrotation
              JOINT lThumb1
              {
                OFFSET 1.2192 -0.487915 3.41376
                CHANNELS 3 Zrotation Xrotation Yrotation
                JOINT lThumb2
                {
                  OFFSET 3.37035 -0.52449 3.41376
                  CHANNELS 3 Zrotation Xrotation Yrotation
                  End Site
                  {
                    OFFSET 1.78271 -1.18214 1.43049
                  }
                }
              }
              JOINT lIndex1
              {
                OFFSET 7.75947 0.938293 5.60832
                CHANNELS 3 Zrotation Xrotation Yrotation
                JOINT lIndex2
                {
                  OFFSET 2.54057 -0.884171 1.56538
                  CHANNELS 3 Zrotation Xrotation Yrotation
                  End Site
                  {
                    OFFSET 1.62519 -0.234802 1.16502
                  }
                }
              }
              JOINT lMid1
              {
                OFFSET 8.24714 1.18213 3.41376
                CHANNELS 3 Zrotation Xrotation Yrotation
                JOINT lMid2
                {
                  OFFSET 3.10165 -0.590103 1.0647
                  CHANNELS 3 Zrotation Xrotation Yrotation
                  End Site
                  {
                    OFFSET 2.48547 -0.328903 0.83742
                  }
                }
              }
              JOINT lRing1
              {
                OFFSET 8.82822 0.546677 1.51678
                CHANNELS 3 Zrotation Xrotation Yrotation
                JOINT lRing2
                {
                  OFFSET 2.60934 -0.819778 -0.0198488
                  CHANNELS 3 Zrotation Xrotation Yrotation
                  End Site
                  {
                    OFFSET 2.33842 -0.294052 0.168128
                  }
                }
              }
              JOINT lPinky1
              {
                OFFSET 8.27202 -0.0477905 -0.4584
                CHANNELS 3 Zrotation Xrotation Yrotation
                JOINT lPinky2
                {
                  OFFSET 1.82734 -0.647385 -0.700984
                  CHANNELS 3 Zrotation Xrotation Yrotation
                  End Site
                  {
                    OFFSET 1.69225 -0.51767 -0.607171
                  }
                }
              }
            }
          }
        }
      }
    }
  }
  JOINT rButtock
  {
    OFFSET -8.77824 4.35084 1.2192
    CHANNELS 3 Zrotation Xrotation Yrotation
    JOINT rThigh
    {
      OFFSET 0 -1.70687 -2.19456
      CHANNELS 3 Zrotation Xrotation Yrotation
      JOINT rShin
      {
        OFFSET 0 -36.8199 0.73152
        CHANNELS 3 Zrotation Xrotation Yrotation
        JOINT rFoot
        {
          OFFSET 0.73152 -45.1104 -5.12064
          CHANNELS 3 Zrotation Xrotation Yrotation
          End Site
          {
            OFFSET -1.1221 -3.69964 12.103
          }
        }
      }
    }
  }
  JOINT lButtock
  {
    OFFSET 8.77824 4.35084 1.2192
    CHANNELS 3 Zrotation Xrotation Yrotation
    JOINT lThigh
    {
      OFFSET 0 -1.70687 -2.19456
      CHANNELS 3 Zrotation Xrotation Yrotation
      JOINT lShin
      {
        OFFSET 0 -36.8199 0.73152
        CHANNELS 3 Zrotation Xrotation Yrotation
        JOINT lFoot
        {
          OFFSET -0.73152 -45.1104 -5.12064
          CHANNELS 3 Zrotation Xrotation Yrotation
          End Site
          {
            OFFSET 1.1221 -3.69964 12.103
          }
        }
      }
    }
  }
}
MOTION
Frames:	5
Frame Time:	0.03333
39.2593 55.9464 18.1793 -174.182873 17.366476 -177.449684 3.445779 31.30714 -0.0 6.475237 -13.433341 -7.726219 -16.992476 25.496342 -60.577582 37.304514 -2.181852 13.012118 0.003434 -0.0 -0.001332 0.003932 0.0 0.003169 -5.825275 24.937205 6.990144 50.524758 -59.918341 9.412383 -90.617254 40.209984 78.959275 24.346763 -42.384189 16.727954 -171.654174 -9.335992 89.949387 26.32049 -64.17552 22.4722 -145.33811 -6.265228 118.67652 2.278363 14.981934 -6.625478 -89.83633 60.701799 81.262247 3.626259 -0.580461 0.094374 -145.121455 0.185398 -179.18657 11.038147 11.147142 -7.673209 8.58117 27.211695 7.532545 -76.369797 -54.742996 -75.53112 159.221166 -48.028514 -170.414905 -122.467686 4.584375 176.44619 8.862371 -7.561051 -100.667931 13.127488 -54.828175 14.787919 -174.054721 -22.871219 -88.064079 -179.725474 -17.913565 -102.93634 160.409321 -33.696505 -122.705789 -96.301123 -70.487091 -41.603875 0.058114 0.167794 -0.032135 1.305265 12.64011 -2.165489 0.002008 -0.060722 0.019877 155.43806 -1.618882 -172.043376 124.851286 -29.038579 122.621605 84.545163 -52.293375 84.709039 179.966724 75.74854 0.027379 156.380231 14.109937 -0.0 -70.505408 73.143445 88.34687 -72.255321 7.665837 -9.759125 -179.981291 75.750178 -0.012801 -139.884696 4.559206 84.343792 111.598281 4.933218 143.067603 -121.491563 45.620667 -143.319858
40.098 55.7289 17.985 -173.827391 14.999468 -175.749909 3.247879 25.889685 76.234628 -9.207268 -9.32702 -82.300338 -13.144524 17.107137 -20.239408 23.996315 -21.717142 -16.027138 -0.00276 0.0 -0.001406 -0.00276 0.0 -0.001406 -44.925913 -86.287379 -66.533508 -48.967553 -58.073242 -49.742594 116.915833 52.783363 -81.377107 -43.615102 72.093094 29.197514 114.538567 -50.245288 55.721871 -160.90443 -10.67747 116.680668 -90.224728 41.072314 75.797068 124.913095 -65.118231 72.613812 -60.456028 59.679243 53.004241 -1.156521 12.652784 2.322419 -145.12002 0.309928 -179.226074 12.110483 44.703375 -3.860738 -25.540642 -38.086642 -24.599008 -166.280593 71.111768 -147.751899 155.459488 -3.227799 -161.777674 -30.169745 -62.807559 -84.262831 28.843212 -75.153375 -67.723152 11.633988 -45.788192 11.477495 -114.539444 -50.24611 -55.721613 16.092061 -57.253256 31.360948 156.111256 -25.994795 -122.3112 -77.786996 -68.227646 -25.758588 167.374066 -28.008682 -145.269139 83.325485 63.979069 -75.21688 145.119396 0.185481 179.18642 -10.203151 -0.130709 9.012375 -18.596597 64.798531 -13.041718 -14.209524 41.904165 -7.623583 -179.988925 75.748159 -0.007578 153.717868 12.493238 5.552049 -149.467056 82.581359 -72.193091 -4.681745 39.377565 -140.552009 179.987178 75.750311 0.008773 -139.702492 1.424022 -88.321356 -103.249813 12.768008 118.722845 84.05614 -32.529571 5.056647
40.881699999999995 56.112300000000005 17.840500000000002 -173.517873 13.238069 -176.23823 5.946737 22.142059 144.136063 -8.523554 4.337425 -146.200492 2.611053 25.166419 113.829686 -36.160691 15.203715 -132.467227 -0.002921 -0.0 0.000109 -0.002921 -0.0 0.000109 -143.954605 37.588537 148.438315 67.982331 -48.182687 74.820282 109.787925 -4.068138 169.025611 -133.077627 67.792798 110.638422 -169.319578 -7.000806 89.922472 -149.329005 4.314625 76.47977 1.339933 -2.204942 -0.738664 -60.727437 48.127474 46.766035 -39.288719 53.36599 32.878311 80.709753 -77.89296 52.075197 -0.01499 -1.323192 -0.415607 -23.279276 72.959563 36.416776 -1.177811 -2.985391 -1.092151 14.623857 41.791749 8.479739 85.537556 68.183303 -88.68897 125.477387 0.120955 -112.292294 -86.897231 -25.521053 93.127668 72.499776 54.494069 -52.061789 5.433826 5.264954 -1.077284 2.10901 3.247432 -5.191889 123.87094 22.788782 -104.455549 65.368142 55.343028 -45.641259 0.571279 1.648327 -0.322055 163.98459 -6.977478 -143.568855 0.015718 -1.323326 0.414721 78.186418 78.784785 -91.712377 135.06931 -13.384577 132.470467 9.309898 -23.777848 12.200767 -0.000126 0.000211 0.000162 -45.277614 -50.648949 -38.557367 -133.05986 77.588231 -15.340833 19.60337 32.382007 137.456906 0.002572 -0.000329 0.002572 68.013373 -49.146807 73.017576 131.201161 72.524008 -178.561301 29.343973 -8.947902 58.513057
41.4497 56.5795 17.822499999999998 -173.646849 12.528327 -176.853473 5.199082 24.240303 62.565541 -8.156133 -9.308864 -61.434586 4.036827 18.697489 90.081697 -31.785322 1.258992 -89.704656 0.002412 -0.0 -0.000668 -0.00328 0.0 -0.000807 -157.000735 -14.634242 164.068879 158.000965 2.389069 164.076459 171.175532 45.926337 86.19159 -172.487407 5.863161 141.501265 -7.759476 7.438629 1.682516 64.237544 -72.06866 -1.216898 -151.353383 -17.158319 121.13318 -61.41429 57.298579 45.378331 -10.974882 25.790343 7.638516 80.59034 -77.976537 52.037091 -0.000229 -0.018325 -0.00703 10.329595 0.039751 -0.058365 -145.25384 12.331697 -141.898301 16.580859 42.736738 5.970884 155.679434 -4.672464 -162.082078 -95.771334 -87.221832 -145.754369 -84.145449 18.708561 -130.004817 85.972871 60.406608 -64.31081 160.05142 2.212749 -88.877045 -167.847234 -26.894489 -90.816844 -23.56381 -41.522291 5.642422 -8.789557 10.256216 0.529754 39.288784 53.36567 -32.87907 88.56814 63.977476 -80.473064 0.013459 -1.322958 0.417167 23.2921 72.957695 -36.426046 4.129556 -9.745993 3.86087 8.523251 -23.980314 10.107075 -179.996337 75.750932 -0.003779 153.55959 13.970747 -86.602783 -100.529442 -7.367517 -96.031166 -49.52975 34.784927 -162.787818 -179.991104 75.750932 -0.007849 -144.442964 2.943647 91.041276 109.4993 -4.479009 146.73373 -104.50997 54.686351 -154.212585
41.9306 56.903800000000004 17.8419 -174.236815 12.477534 -177.214879 6.478984 24.519171 -2.451893 1.025004 -12.848306 10.844225 -12.460424 20.407822 -69.333488 36.521278 4.350284 87.642693 0.001165 0.0 0.004329 0.000439 0.0 0.003069 2.459735 -18.216362 -3.669145 4.150766 -62.629204 -44.388936 -92.171807 -15.215566 130.230323 158.469414 -68.707133 135.547696 -178.926901 -16.453946 89.421895 50.103844 -71.631534 37.522652 -145.024421 -5.716825 118.523469 95.397262 -70.502225 43.41867 -151.476613 17.841289 137.53759 -163.953266 -7.058408 143.207134 -0.020573 -1.645304 -0.517498 -155.644836 -7.00376 172.699311 -144.261014 9.237103 -141.010517 48.474099 80.548114 -11.883442 14.147572 43.061857 -15.995404 122.727315 -15.389721 -122.438118 165.274229 -13.983915 95.124252 6.341913 -18.377432 4.832573 2.925501 2.862235 -0.520709 -8.179191 -10.014315 4.365185 150.887223 -16.291508 -120.977406 171.564101 -34.876825 -117.728092 36.036855 51.722896 -29.832441 171.964088 -31.377035 -143.989963 0.01386 -1.323259 0.415198 156.173311 -17.987756 -173.972894 -1.135725 3.040055 -1.045855 -28.261712 75.246769 -6.319255 -179.788459 75.749046 -0.163044 153.717214 14.13855 -86.973458 -87.794295 -9.440144 98.853719 -39.776861 -11.055823 -14.548749 179.850434 75.749507 0.115278 -144.814529 3.995032 89.462334 99.372589 -7.293678 -116.14265 66.681269 16.925361 20.653065
